<?xml version="1.0" encoding="iso-8859-1"?>
<!-- Generator: Adobe Illustrator 19.1.0, SVG Export Plug-In . SVG Version: 6.00 Build 0)  -->
<svg version="1.1" id="Capa_1" xmlns="http://www.w3.org/2000/svg" xmlns:xlink="http://www.w3.org/1999/xlink" x="0px" y="0px"
	 viewBox="0 0 466 466" style="enable-background:new 0 0 466 466;" xml:space="preserve">
<g>
	<g id="XMLID_1754_">
		<path id="XMLID_1755_" d="M232.975,0c-60.2,0-109,48.8-109,109s48.8,109,109,109s109-48.8,109-109S293.175,0,232.975,0z
			 M232.975,73.5c-19.6,0-35.5,15.9-35.5,35.5c0,9-7.3,16.3-16.3,16.3s-16.2-7.3-16.2-16.3c0-37.5,30.5-68,68-68
			c9,0,16.3,7.3,16.3,16.3S241.975,73.5,232.975,73.5z"/>
		<g id="XMLID_1806_">
			<path id="XMLID_1811_" d="M427.875,364.9v-2.2c0-0.1,0-0.2-0.1-0.3c-0.9-30.7-6.7-51.9-38.1-71.6c-41.6-26.1-88-48.7-88-48.7
				l-37,116.9l-21.6-43.4c37.9-52.9-2.7-55.6-9.9-55.7l0,0c-0.1,0-0.2,0-0.2,0c-0.1,0-0.2,0-0.2,0l0,0c-7.2,0.1-47.8,2.7-9.9,55.7
				l-21.6,43.4l-37-116.9c0,0-46.5,22.6-88,48.7c-31.4,19.7-37.2,40.9-38.1,71.6c0,0.1-0.1,0.2-0.1,0.3v2.2
				c-0.1,5.9-0.1,12.1,0,18.8c0,0,0-0.9,0-2.3V466h194.7h195.2v-84.6c0,1.4,0,2.3,0,2.3C427.975,377.1,428.075,370.8,427.875,364.9z
				"/>
			<path id="XMLID_1809_" d="M38.475,361.8C38.375,361.2,38.375,361.3,38.475,361.8C38.375,361.9,38.375,361.8,38.475,361.8z"/>
			<path id="XMLID_1808_" d="M427.575,361.9C427.575,361.3,427.575,361.2,427.575,361.9C427.575,361.8,427.575,361.9,427.575,361.9z
				"/>
		</g>
	</g>
</g>
<g>
</g>
<g>
</g>
<g>
</g>
<g>
</g>
<g>
</g>
<g>
</g>
<g>
</g>
<g>
</g>
<g>
</g>
<g>
</g>
<g>
</g>
<g>
</g>
<g>
</g>
<g>
</g>
<g>
</g>
</svg>
